<svg width="24" height="24" viewBox="0 0 24 24" fill="none" xmlns="http://www.w3.org/2000/svg"><path d="M6 22h12a2 2 0 0 0 2-2V9l-5-2-2-5H6a2 2 0 0 0-2 2v16c0 1.1.9 2 2 2Z" fill="url(#ic_fluent_document_text_24_color__a)"/><path d="M6 22h12a2 2 0 0 0 2-2V9l-5-2-2-5H6a2 2 0 0 0-2 2v16c0 1.1.9 2 2 2Z" fill="url(#ic_fluent_document_text_24_color__b)" fill-opacity=".5"/><path d="M13 7.5V2l7 7h-5.5A1.5 1.5 0 0 1 13 7.5Z" fill="url(#ic_fluent_document_text_24_color__c)"/><path d="M8.75 11.5a.75.75 0 0 0 0 1.5h6.5a.75.75 0 0 0 0-1.5h-6.5Zm0 2.75a.75.75 0 0 0 0 1.5h6.5a.75.75 0 0 0 0-1.5h-6.5Zm0 2.75a.75.75 0 0 0 0 1.5h6.5a.75.75 0 0 0 0-1.5h-6.5Z" fill="url(#ic_fluent_document_text_24_color__d)" fill-opacity=".9"/><defs><linearGradient id="ic_fluent_document_text_24_color__a" x1="15.2" y1="2" x2="16.82" y2="18.87" gradientUnits="userSpaceOnUse"><stop stop-color="#6CE0FF"/><stop offset="1" stop-color="#4894FE"/></linearGradient><linearGradient id="ic_fluent_document_text_24_color__c" x1="16.49" y1="4.92" x2="14.74" y2="7.83" gradientUnits="userSpaceOnUse"><stop stop-color="#9FF0F9"/><stop offset="1" stop-color="#B3E0FF"/></linearGradient><linearGradient id="ic_fluent_document_text_24_color__d" x1="16" y1="21.3" x2="8.2" y2="8.58" gradientUnits="userSpaceOnUse"><stop stop-color="#9DEAFF"/><stop offset="1" stop-color="#fff"/></linearGradient><radialGradient id="ic_fluent_document_text_24_color__b" cx="0" cy="0" r="1" gradientUnits="userSpaceOnUse" gradientTransform="matrix(-8.66665 9.09357 -5.3691 -5.11703 20.67 2.63)"><stop offset=".36" stop-color="#4A43CB"/><stop offset="1" stop-color="#4A43CB" stop-opacity="0"/></radialGradient></defs></svg>