<svg width="16" height="16" viewBox="0 0 16 16" fill="none" xmlns="http://www.w3.org/2000/svg"><path fill-rule="evenodd" clip-rule="evenodd" d="M3 11v-.5h1.5v.5c0 .97.78 1.75 1.75 1.75h2v1.5h-2A3.25 3.25 0 0 1 3 11Z" fill="url(#ic_fluent_headset_16_color__a)"/><path d="M9.5 13.5a1.5 1.5 0 1 1-3 0 1.5 1.5 0 0 1 3 0Z" fill="url(#ic_fluent_headset_16_color__b)"/><path fill-rule="evenodd" clip-rule="evenodd" d="M8 2.5A3.5 3.5 0 0 0 4.5 6v2H3V6a5 5 0 0 1 10 0v2h-1.5V6A3.5 3.5 0 0 0 8 2.5Z" fill="url(#ic_fluent_headset_16_color__c)"/><path fill-rule="evenodd" clip-rule="evenodd" d="M3 11V7h1.5v4H3Z" fill="url(#ic_fluent_headset_16_color__d)"/><path fill-rule="evenodd" clip-rule="evenodd" d="M11.5 7H13v2.5c0 .83-.67 1.5-1.5 1.5V7Z" fill="url(#ic_fluent_headset_16_color__e)"/><path d="M6.25 11c.41 0 .75-.34.75-.75v-2.5A.75.75 0 0 0 6.25 7H4.5l-1 2 1 2h1.75Z" fill="url(#ic_fluent_headset_16_color__f)"/><path d="M9.75 7a.75.75 0 0 0-.75.75v2.5c0 .41.34.75.75.75h1.75l1-2-1-2H9.75Z" fill="url(#ic_fluent_headset_16_color__g)"/><defs><linearGradient id="ic_fluent_headset_16_color__a" x1="6.38" y1="13" x2="5.67" y2="10.34" gradientUnits="userSpaceOnUse"><stop stop-color="#9CA5AD"/><stop offset="1" stop-color="#70777D"/></linearGradient><linearGradient id="ic_fluent_headset_16_color__b" x1="9.13" y1="14.63" x2="6.58" y2="13.14" gradientUnits="userSpaceOnUse"><stop stop-color="#383B3D"/><stop offset="1" stop-color="#70777D"/></linearGradient><linearGradient id="ic_fluent_headset_16_color__c" x1="1.09" y1="2.56" x2="3.82" y2="8.39" gradientUnits="userSpaceOnUse"><stop stop-color="#B9C0C7"/><stop offset="1" stop-color="#70777D"/></linearGradient><linearGradient id="ic_fluent_headset_16_color__d" x1="12.17" y1="7" x2="12.17" y2="11" gradientUnits="userSpaceOnUse"><stop stop-color="#0078D4"/><stop offset="1" stop-color="#2052CB"/></linearGradient><linearGradient id="ic_fluent_headset_16_color__e" x1="12.17" y1="7" x2="12.17" y2="11" gradientUnits="userSpaceOnUse"><stop stop-color="#0078D4"/><stop offset="1" stop-color="#2052CB"/></linearGradient><linearGradient id="ic_fluent_headset_16_color__f" x1="11.19" y1="7" x2="11.19" y2="11" gradientUnits="userSpaceOnUse"><stop stop-color="#0FAFFF"/><stop offset="1" stop-color="#0067BF"/></linearGradient><linearGradient id="ic_fluent_headset_16_color__g" x1="11.19" y1="7" x2="11.19" y2="11" gradientUnits="userSpaceOnUse"><stop stop-color="#0FAFFF"/><stop offset="1" stop-color="#0067BF"/></linearGradient></defs></svg>