<svg width="32" height="32" viewBox="0 0 32 32" fill="none" xmlns="http://www.w3.org/2000/svg"><path d="M30 16a14 14 0 1 1-28 0 14 14 0 0 1 28 0Z" fill="url(#ic_fluent_question_circle_32_color__a)"/><path d="M17.5 22a1.5 1.5 0 1 1-3 0 1.5 1.5 0 0 1 3 0ZM14 12c0-.54.18-1.04.5-1.4.3-.34.77-.6 1.5-.6 1.3 0 2.38 1.35 2.03 2.76-.18.72-.61 1.13-1.26 1.75-.05.06-.11.12-.18.17-.72.7-1.59 1.65-1.59 3.32a1 1 0 1 0 2 0c0-.83.35-1.27.98-1.88l.2-.18a5.5 5.5 0 0 0 1.79-2.7A4.2 4.2 0 0 0 16 8a3.9 3.9 0 0 0-3 1.27A4.1 4.1 0 0 0 12 12a1 1 0 1 0 2 0Z" fill="url(#ic_fluent_question_circle_32_color__b)"/><defs><linearGradient id="ic_fluent_question_circle_32_color__a" x1="2" y1="2" x2="30" y2="30" gradientUnits="userSpaceOnUse"><stop stop-color="#0FAFFF"/><stop offset="1" stop-color="#2764E7"/></linearGradient><linearGradient id="ic_fluent_question_circle_32_color__b" x1="12.71" y1="8.27" x2="17.35" y2="23.91" gradientUnits="userSpaceOnUse"><stop stop-color="#FDFDFD"/><stop offset="1" stop-color="#CCEAFF"/></linearGradient></defs></svg>