<svg width="48" height="48" viewBox="0 0 48 48" fill="none" xmlns="http://www.w3.org/2000/svg"><path d="M24 9.73A5.48 5.48 0 0 0 20 8H7a3 3 0 0 0-3 3v26a3 3 0 0 0 3 3h13c1.58 0 3-.66 4-1.73L25 23 24 9.73Z" fill="url(#ic_fluent_book_open_48_color__a)"/><path d="M24 9.73A5.48 5.48 0 0 1 28 8h13a3 3 0 0 1 3 3v26a3 3 0 0 1-3 3H28c-1.58 0-3-.66-4-1.73L23 23l1-13.27Z" fill="url(#ic_fluent_book_open_48_color__b)"/><path d="M6.5 9a1 1 0 0 1 1-1h15c.83 0 1.5.67 1.5 1.5l.5 15L24 34a3.5 3.5 0 0 1-3.5 3.5h-13a1 1 0 0 1-1-1V9Z" fill="url(#ic_fluent_book_open_48_color__c)"/><path d="M41.5 9a1 1 0 0 0-1-1h-15c-.83 0-1.5.67-1.5 1.5V34a3.5 3.5 0 0 0 3.5 3.5h13a1 1 0 0 0 1-1V9Z" fill="url(#ic_fluent_book_open_48_color__d)"/><defs><linearGradient id="ic_fluent_book_open_48_color__a" x1="11.25" y1="13.99" x2="17.19" y2="48.12" gradientUnits="userSpaceOnUse"><stop stop-color="#20AC9D"/><stop offset="1" stop-color="#2052CB"/></linearGradient><linearGradient id="ic_fluent_book_open_48_color__b" x1="36.75" y1="13.99" x2="30.81" y2="48.12" gradientUnits="userSpaceOnUse"><stop stop-color="#20AC9D"/><stop offset="1" stop-color="#2052CB"/></linearGradient><linearGradient id="ic_fluent_book_open_48_color__c" x1="4" y1="6.87" x2="56.02" y2="31.28" gradientUnits="userSpaceOnUse"><stop stop-color="#B6EFFF"/><stop offset=".85" stop-color="#58AAFE"/></linearGradient><linearGradient id="ic_fluent_book_open_48_color__d" x1="35.25" y1="9.38" x2="7.22" y2="14.88" gradientUnits="userSpaceOnUse"><stop offset=".12" stop-color="#9DEAFF"/><stop offset=".62" stop-color="#4894FE"/></linearGradient></defs></svg>