<svg width="20" height="20" viewBox="0 0 20 20" fill="none" xmlns="http://www.w3.org/2000/svg"><path d="M15.5 7H7l-.5-2L7 3h8.5c.83 0 1.5.67 1.5 1.5v1c0 .83-.67 1.5-1.5 1.5Z" fill="url(#ic_fluent_list_bar_20_color__a)"/><path d="M7 12h8.5c.83 0 1.5-.67 1.5-1.5v-1c0-.83-.67-1.5-1.5-1.5H7l-.5 2 .5 2Z" fill="url(#ic_fluent_list_bar_20_color__b)"/><path d="M7 17h8.5c.83 0 1.5-.67 1.5-1.5v-1c0-.83-.67-1.5-1.5-1.5H7l-.5 2 .5 2Z" fill="url(#ic_fluent_list_bar_20_color__c)"/><path d="M7 7V3H4.5C3.67 3 3 3.67 3 4.5v1C3 6.33 3.67 7 4.5 7H7Z" fill="url(#ic_fluent_list_bar_20_color__d)"/><path d="M7 8v4H4.5A1.5 1.5 0 0 1 3 10.5v-1C3 8.67 3.67 8 4.5 8H7Z" fill="url(#ic_fluent_list_bar_20_color__e)"/><path d="M7 13v4H4.5A1.5 1.5 0 0 1 3 15.5v-1c0-.83.67-1.5 1.5-1.5H7Z" fill="url(#ic_fluent_list_bar_20_color__f)"/><defs><linearGradient id="ic_fluent_list_bar_20_color__a" x1="4.92" y1="1" x2="16.95" y2="16.21" gradientUnits="userSpaceOnUse"><stop stop-color="#36DFF1"/><stop offset="1" stop-color="#0094F0"/></linearGradient><linearGradient id="ic_fluent_list_bar_20_color__b" x1="4.92" y1="1" x2="16.95" y2="16.21" gradientUnits="userSpaceOnUse"><stop stop-color="#36DFF1"/><stop offset="1" stop-color="#0094F0"/></linearGradient><linearGradient id="ic_fluent_list_bar_20_color__c" x1="4.92" y1="1" x2="16.95" y2="16.21" gradientUnits="userSpaceOnUse"><stop stop-color="#36DFF1"/><stop offset="1" stop-color="#0094F0"/></linearGradient><linearGradient id="ic_fluent_list_bar_20_color__d" x1="3.95" y1="4.86" x2="9.94" y2="7.59" gradientUnits="userSpaceOnUse"><stop offset=".13" stop-color="#9C6CFE"/><stop offset="1" stop-color="#7A41DC"/></linearGradient><linearGradient id="ic_fluent_list_bar_20_color__e" x1="3.95" y1="4.86" x2="9.94" y2="7.59" gradientUnits="userSpaceOnUse"><stop offset=".13" stop-color="#9C6CFE"/><stop offset="1" stop-color="#7A41DC"/></linearGradient><linearGradient id="ic_fluent_list_bar_20_color__f" x1="3.95" y1="4.86" x2="9.94" y2="7.59" gradientUnits="userSpaceOnUse"><stop offset=".13" stop-color="#9C6CFE"/><stop offset="1" stop-color="#7A41DC"/></linearGradient></defs></svg>