<svg width="20" height="20" viewBox="0 0 20 20" fill="none" xmlns="http://www.w3.org/2000/svg"><path d="M5.5 3A2.5 2.5 0 0 0 3 5.5v9A2.5 2.5 0 0 0 5.5 17h9a2.5 2.5 0 0 0 2.5-2.5v-9A2.5 2.5 0 0 0 14.5 3h-9Z" fill="url(#ic_fluent_number_symbol_square_20_color__a)"/><path d="M9.1 6.01a.5.5 0 0 1 .39.6L9.19 8h2.48L12 6.4a.5.5 0 0 1 .98.2l-.3 1.4h.81a.5.5 0 0 1 0 1h-1.02l-.43 2H13a.5.5 0 0 1 0 1h-1.17l-.34 1.6a.5.5 0 1 1-.98-.2l.3-1.4H8.33L8 13.6a.5.5 0 1 1-.98-.2l.3-1.4H6.5a.5.5 0 0 1 0-1h1.02l.43-2H7a.5.5 0 0 1 0-1h1.17l.34-1.6a.5.5 0 0 1 .6-.39ZM8.55 11h2.47l.43-2H8.98l-.43 2Z" fill="url(#ic_fluent_number_symbol_square_20_color__b)"/><defs><linearGradient id="ic_fluent_number_symbol_square_20_color__a" x1="6.41" y1="3" x2="14.09" y2="17" gradientUnits="userSpaceOnUse"><stop offset=".03" stop-color="#E67EEA"/><stop offset=".44" stop-color="#AD64D7"/><stop offset="1" stop-color="#794DC5"/></linearGradient><linearGradient id="ic_fluent_number_symbol_square_20_color__b" x1="7.9" y1="6.31" x2="13.96" y2="16.77" gradientUnits="userSpaceOnUse"><stop stop-color="#FDFDFD"/><stop offset="1" stop-color="#F9DCFA"/></linearGradient></defs></svg>