<svg width="28" height="28" viewBox="0 0 28 28" xmlns="http://www.w3.org/2000/svg"><path d="M25.75 15.25c.41 0 .75.34.75.75a7 7 0 0 1-6.25 6.96v2.29a.75.75 0 0 1-1.5 0v-2.3A7 7 0 0 1 12.5 16a.75.75 0 0 1 1.5 0 5.5 5.5 0 0 0 11 0c0-.41.34-.75.75-.75ZM11.5 2c2.78 0 5.28 1.2 7.02 3.1A5 5 0 0 0 14.5 10v4.78a1.74 1.74 0 0 0-3 1.22c0 1.83.61 3.5 1.64 4.86a9.56 9.56 0 0 1-5.83-.84l-3.76.94c-.91.23-1.74-.6-1.51-1.51l.94-3.76A9.5 9.5 0 0 1 11.5 2Zm8 4a4 4 0 0 1 4 4v6a4 4 0 0 1-8 0v-6a4 4 0 0 1 4-4Z"/></svg>