<svg width="16" height="16" viewBox="0 0 16 16" fill="none" xmlns="http://www.w3.org/2000/svg"><path d="M9 1H5.5C4.67 1 4 1.67 4 2.5v11c0 .83.67 1.5 1.5 1.5h7c.82 0 1.5-.67 1.5-1.5V6l-3.5-1.5L9 1Z" fill="url(#ic_fluent_document_add_16_color__a)"/><path d="M9 1H5.5C4.67 1 4 1.67 4 2.5v11c0 .83.67 1.5 1.5 1.5h7c.82 0 1.5-.67 1.5-1.5V6l-3.5-1.5L9 1Z" fill="url(#ic_fluent_document_add_16_color__b)" fill-opacity=".5"/><path d="M9 1H5.5C4.67 1 4 1.67 4 2.5v11c0 .83.67 1.5 1.5 1.5h7c.82 0 1.5-.67 1.5-1.5V6l-3.5-1.5L9 1Z" fill="url(#ic_fluent_document_add_16_color__c)" fill-opacity=".5"/><path d="M9 4.5V1l5 5h-3.5A1.5 1.5 0 0 1 9 4.5Z" fill="url(#ic_fluent_document_add_16_color__d)"/><path d="M10 10.5a4.5 4.5 0 1 0-9 0 4.5 4.5 0 0 0 9 0Z" fill="url(#ic_fluent_document_add_16_color__e)"/><path d="M5 8.5a.5.5 0 0 1 1 0v4a.5.5 0 0 1-1 0v-4Z" fill="url(#ic_fluent_document_add_16_color__f)"/><path d="M7.5 9.99a.5.5 0 0 1 0 1l-4 .02a.5.5 0 1 1 0-1l4-.02Z" fill="url(#ic_fluent_document_add_16_color__g)"/><defs><linearGradient id="ic_fluent_document_add_16_color__a" x1="10.99" y1="1" x2="12.26" y2="12.78" gradientUnits="userSpaceOnUse"><stop stop-color="#6CE0FF"/><stop offset="1" stop-color="#4894FE"/></linearGradient><linearGradient id="ic_fluent_document_add_16_color__d" x1="11.49" y1="3.08" x2="10.24" y2="5.17" gradientUnits="userSpaceOnUse"><stop stop-color="#9FF0F9"/><stop offset="1" stop-color="#B3E0FF"/></linearGradient><linearGradient id="ic_fluent_document_add_16_color__e" x1="1.32" y1="7.69" x2="7.53" y2="14.14" gradientUnits="userSpaceOnUse"><stop stop-color="#52D17C"/><stop offset="1" stop-color="#22918B"/></linearGradient><linearGradient id="ic_fluent_document_add_16_color__f" x1="3.94" y1="8.51" x2="5.47" y2="13.93" gradientUnits="userSpaceOnUse"><stop stop-color="#fff"/><stop offset="1" stop-color="#E3FFD9"/></linearGradient><linearGradient id="ic_fluent_document_add_16_color__g" x1="3.94" y1="8.51" x2="5.47" y2="13.93" gradientUnits="userSpaceOnUse"><stop stop-color="#fff"/><stop offset="1" stop-color="#E3FFD9"/></linearGradient><radialGradient id="ic_fluent_document_add_16_color__b" cx="0" cy="0" r="1" gradientUnits="userSpaceOnUse" gradientTransform="rotate(130.37 6.87 4.05) scale(8.35524 4.87457)"><stop offset=".36" stop-color="#4A43CB"/><stop offset="1" stop-color="#4A43CB" stop-opacity="0"/></radialGradient><radialGradient id="ic_fluent_document_add_16_color__c" cx="0" cy="0" r="1" gradientUnits="userSpaceOnUse" gradientTransform="matrix(-.94492 7.75807 -6.33816 -.77197 5.5 13)"><stop offset=".54" stop-color="#4A43CB"/><stop offset="1" stop-color="#4A43CB" stop-opacity="0"/></radialGradient></defs></svg>